<svg width="31" height="31" viewBox="0 0 31 31" fill="none" xmlns="http://www.w3.org/2000/svg">
<circle cx="15.5" cy="15.5" r="15" fill="#FCFAF9" stroke="#BABFC1"/>
<path d="M8 21.346C8 21.346 10.229 18.5 15.729 18.5C21.229 18.5 23.459 21.346 23.459 21.346H8ZM15.729 15C16.5246 15 17.2877 14.6839 17.8503 14.1213C18.4129 13.5587 18.729 12.7956 18.729 12C18.729 11.2044 18.4129 10.4413 17.8503 9.87868C17.2877 9.31607 16.5246 9 15.729 9C14.9334 9 14.1703 9.31607 13.6077 9.87868C13.0451 10.4413 12.729 11.2044 12.729 12C12.729 12.7956 13.0451 13.5587 13.6077 14.1213C14.1703 14.6839 14.9334 15 15.729 15V15Z" stroke="#BABFC1" stroke-width="1.5" stroke-linecap="round" stroke-linejoin="round"/>
</svg>
